<svg width="35" height="45" viewBox="0 0 33 42" fill="none" xmlns="http://www.w3.org/2000/svg">
<path d="M21 31.7143C26.9173 31.7143 31.7143 26.9173 31.7143 21C31.7143 15.0827 26.9173 10.2857 21 10.2857C15.0827 10.2857 10.2857 15.0827 10.2857 21C10.2857 26.9173 15.0827 31.7143 21 31.7143Z" fill="#E1EAE5" stroke="#1F2D25" stroke-linecap="round" stroke-linejoin="round"/>
<path d="M21 4.57143V1" stroke="#1F2D25" stroke-linecap="round" stroke-linejoin="round"/>
<path d="M9.37504 9.375L6.85718 6.85714" stroke="#1F2D25" stroke-linecap="round" stroke-linejoin="round"/>
<path d="M4.57143 21H1" stroke="#1F2D25" stroke-linecap="round" stroke-linejoin="round"/>
<path d="M9.37504 32.625L6.85718 35.1429" stroke="#1F2D25" stroke-linecap="round" stroke-linejoin="round"/>
<path d="M21 37.4286V41" stroke="#1F2D25" stroke-linecap="round" stroke-linejoin="round"/>
<path fill-rule="evenodd" clip-rule="evenodd" d="M19.6198 31.4101C23.5613 30.7539 25.5 26.5708 25.5 21C25.5 15.4292 23.5613 11.2461 19.6198 10.5899C20.0715 10.5306 20.5322 10.5 21 10.5C26.799 10.5 31.5 15.201 31.5 21C31.5 26.799 26.799 31.5 21 31.5C20.5322 31.5 20.0715 31.4694 19.6198 31.4101Z" fill="#1F2D25"/>
</svg>
