<svg width="40" height="40" viewBox="0 0 40 40" fill="none" xmlns="http://www.w3.org/2000/svg">
<path d="M24.6667 38.5V33.3333V30.8757C24.7167 30.24 24.6308 29.6008 24.4147 29.0008C24.1985 28.4008 23.8572 27.8536 23.4133 27.3957C27.6 26.9291 32 25.3424 32 18.0624C31.9996 16.2008 31.2836 14.4107 30 13.0624C30.6077 11.4337 30.5648 9.63352 29.88 8.03572C29.88 8.03572 28.3067 7.56906 24.6667 10.0091C21.6107 9.18082 18.3893 9.18082 15.3333 10.0091C11.6933 7.56906 10.12 8.03572 10.12 8.03572C9.43514 9.63352 9.39217 11.4337 9.99998 13.0624C8.70681 14.4207 7.99001 16.227 7.99998 18.1024C7.99998 25.3291 12.4 26.9157 16.5866 27.4357C16.148 27.8891 15.8097 28.4296 15.5937 29.0223C15.3778 29.6149 15.289 30.2465 15.3333 30.8757V38.5" stroke="currentColor" stroke-linecap="round" stroke-linejoin="round"/>
<path d="M15.3333 32.0354C11.3333 33.333 8 32.0354 6 28.0354" stroke="currentColor" stroke-linecap="round" stroke-linejoin="round"/>
<rect x="0.5" y="0.5" width="39" height="39" rx="19.5" stroke="currentColor"/>
</svg>
