<svg width="40" height="40" viewBox="0 0 40 40" fill="none" xmlns="http://www.w3.org/2000/svg">
<rect x="0.5" y="0.5" width="39" height="39" rx="19.5" stroke="black"/>
<path d="M20.6852 27.0925C24.725 27.0925 28 23.8176 28 19.7777C28 15.7378 24.725 12.4629 20.6852 12.4629C16.6453 12.4629 13.3704 15.7378 13.3704 19.7777C13.3704 23.8176 16.6453 27.0925 20.6852 27.0925Z" stroke="black" stroke-miterlimit="10" stroke-linecap="round" stroke-linejoin="round"/>
<path d="M29.5741 15.0556H33V29.2222C33 31.1667 31.4259 32.8333 29.3889 32.8333H11.6111C9.66667 32.8333 8 31.2593 8 29.2222V10.6111C8 8.57407 9.66667 7 11.6111 7H29.4815C30.963 7 32.3519 8.11111 32.8148 9.40741L26.7963 9.31481C26.3333 9.31481 25.8704 9.68519 25.8704 10.2407L25.963 11.9074" stroke="black" stroke-miterlimit="10" stroke-linecap="round" stroke-linejoin="round"/>
<path d="M8.18521 17.6482H13.2778" stroke="black" stroke-miterlimit="10" stroke-linecap="round" stroke-linejoin="round"/>
</svg>
