<svg width="40" height="40" viewBox="0 0 40 40" fill="none" xmlns="http://www.w3.org/2000/svg">
<path d="M12.4804 14.0265C13.8503 14.0265 14.9608 12.9013 14.9608 11.5132C14.9608 10.1252 13.8503 9 12.4804 9C11.1105 9 10 10.1252 10 11.5132C10 12.9013 11.1105 14.0265 12.4804 14.0265Z" stroke="black" stroke-miterlimit="10" stroke-linecap="round" stroke-linejoin="round"/>
<path d="M27.2124 30.6292C26.6863 30.6292 26.2353 30.1723 26.2353 29.6392V23.7749C26.2353 20.5001 25.2582 19.4339 23.8301 19.4339C22.402 19.4339 20.8987 20.3478 20.8987 23.2418L20.6732 29.563C20.6732 30.0961 20.2222 30.5531 19.6961 30.5531H17.5915C17.0654 30.5531 16.6144 30.0961 16.6144 29.563V16.9968C16.6144 16.4637 17.0654 16.0067 17.5915 16.0067H19.6961C20.2222 16.0067 20.6732 16.4637 20.6732 16.9968V18.6723C21.6503 15.6259 23.4542 15.3975 25.2582 15.3975C27.0621 15.3975 30.3693 16.3875 30.3693 20.3478V29.563" stroke="black" stroke-miterlimit="10" stroke-linecap="round" stroke-linejoin="round"/>
<path d="M13.5327 30.6291H11.4281C10.902 30.6291 10.451 30.1722 10.451 29.639V16.9967C10.451 16.4635 10.902 16.0066 11.4281 16.0066H13.5327C14.0588 16.0066 14.5098 16.4635 14.5098 16.9967V29.5629C14.5098 30.1722 14.0588 30.6291 13.5327 30.6291Z" stroke="black" stroke-miterlimit="10" stroke-linecap="round" stroke-linejoin="round"/>
<rect x="0.5" y="0.5" width="39" height="39" rx="19.5" stroke="currentColor"/>
</svg>
